<?xml version="1.0" encoding="utf-8"?>
<!-- Generator: Adobe Illustrator 23.0.3, SVG Export Plug-In . SVG Version: 6.00 Build 0)  -->
<svg version="1.1" id="Ebene_1" xmlns="http://www.w3.org/2000/svg" xmlns:xlink="http://www.w3.org/1999/xlink" x="0px" y="0px"
	 viewBox="0 0 64 64" enable-background="new 0 0 64 64" xml:space="preserve">
<rect fill="#663399" width="64" height="64"/>
<path fill="#FFFFFF" d="M47,52H17c-0.6,0-1-0.4-1-1V13c0-0.6,0.4-1,1-1h30c0.6,0,1,0.4,1,1v38C48,51.6,47.6,52,47,52z"/>
<rect x="22" y="16" fill="#663399" width="10" height="2"/>
<rect x="34" y="16" fill="#663399" width="10" height="2"/>
<g>
	<rect x="22" y="20" opacity="0.5" fill="#663399" width="10" height="8"/>
	<rect x="22" y="20" fill="#663399" width="10" height="2"/>
</g>
<g>
	<rect x="34" y="20" opacity="0.5" fill="#663399" width="10" height="8"/>
	<rect x="34" y="20" fill="#663399" width="10" height="2"/>
</g>
<g>
	<rect x="34" y="30" opacity="0.5" fill="#663399" width="10" height="8"/>
	<rect x="34" y="30" fill="#663399" width="10" height="2"/>
</g>
<g>
	<rect x="22" y="30" opacity="0.5" fill="#663399" width="10" height="8"/>
	<rect x="22" y="30" fill="#663399" width="10" height="2"/>
</g>
<g>
	<rect x="22" y="40" opacity="0.5" fill="#663399" width="10" height="8"/>
	<rect x="22" y="40" fill="#663399" width="10" height="2"/>
</g>
<rect x="16" y="20" opacity="0.25" fill="#663399" width="4" height="8"/>
<rect x="16" y="30" opacity="0.25" fill="#663399" width="4" height="8"/>
<rect x="16" y="40" opacity="0.25" fill="#663399" width="4" height="8"/>
</svg>
