<svg class="svg-icon" viewBox="0 0 1024 1024" version="1.1" xmlns="http://www.w3.org/2000/svg"><path d="M725.333333 665.173333l-85.333333-85.333333L358.826667 298.666667l-85.333334-85.333334-72.533333-72.96a42.666667 42.666667 0 0 0-60.586667 60.586667l23.04 22.613333L238.506667 298.666667l398.506666 398.506666 62.293334 62.293334 123.733333 124.16a42.666667 42.666667 0 0 0 60.586667 0 42.666667 42.666667 0 0 0 0-60.586667zM597.333333 725.333333H213.333333a42.666667 42.666667 0 0 1-42.666666-42.666666V341.333333a42.666667 42.666667 0 0 1 17.066666-33.28L128 247.466667A128 128 0 0 0 85.333333 341.333333v341.333334a128 128 0 0 0 128 128h384a125.44 125.44 0 0 0 70.826667-21.76L603.306667 725.333333a29.866667 29.866667 0 0 1-5.973334 0zM896 305.066667a72.533333 72.533333 0 0 0-78.933333 12.8l-91.733334 85.333333V341.333333a128 128 0 0 0-128-128H334.08l85.333333 85.333334H597.333333a42.666667 42.666667 0 0 1 42.666667 42.666666v177.92l201.386667 201.386667a73.813333 73.813333 0 0 0 25.6 4.693333 71.68 71.68 0 0 0 29.44-6.4 68.266667 68.266667 0 0 0 42.666666-63.146666V368.213333A68.266667 68.266667 0 0 0 896 305.066667z m-42.666667 317.866666L733.44 512 853.333333 401.066667z" /></svg>
