<svg width="40" height="40" viewBox="0 0 40 40" fill="none" xmlns="http://www.w3.org/2000/svg">
<path d="M29.7399 27.38C29.1999 27.54 28.6299 27.63 28.0599 27.62C23.0599 27.62 15.6099 9.98 15.6099 4.12C15.6099 1.95 16.1199 1.23 16.8399 0.619995C10.6699 1.34 3.25994 3.62 0.839944 6.48C0.229944 7.47 -0.0500555 8.61999 -5.54859e-05 9.77999C-5.54859e-05 18.94 9.78995 39.78 16.6899 39.78C19.8799 39.78 25.2599 34.53 29.6899 27.43" fill="#FF8700"/>
<path d="M26.5199 0C32.8999 0 39.2899 1 39.2899 4.63C39.2899 11.94 34.6499 20.79 32.2899 20.79C28.0699 20.79 22.8199 9.06 22.8199 3.19C22.8199 0.51 23.8199 0 26.5299 0" fill="#FF8700"/>
</svg>
